<?xml version="1.0" encoding="UTF-8" standalone="no"?>
<svg
   xmlns:dc="http://purl.org/dc/elements/1.1/"
   xmlns:cc="http://creativecommons.org/ns#"
   xmlns:rdf="http://www.w3.org/1999/02/22-rdf-syntax-ns#"
   xmlns:svg="http://www.w3.org/2000/svg"
   xmlns="http://www.w3.org/2000/svg"
   id="svg8"
   version="1.1"
   viewBox="0 0 135.46666 135.46667"
   height="512"
   width="512">
  <defs
     id="defs2">
    <clipPath
       id="clipPath4905"
       clipPathUnits="userSpaceOnUse">
      <path
         id="path4903"
         d="m 856.534,1264.95 29.989,-28.378 c 9.456,32.456 -21.977,51.368 -21.977,51.368 v 0 c 3.066,-13.544 -8.012,-22.99 -8.012,-22.99" />
    </clipPath>
    <linearGradient
       id="linearGradient4917"
       spreadMethod="pad"
       gradientTransform="matrix(31.762695,0,0,-31.762695,856.53418,1262.2559)"
       gradientUnits="userSpaceOnUse"
       y2="0"
       x2="1"
       y1="0"
       x1="0">
      <stop
         id="stop4911"
         offset="0"
         style="stop-opacity:1;stop-color:#64c08a" />
      <stop
         id="stop4913"
         offset="0.5"
         style="stop-opacity:1;stop-color:#00a550" />
      <stop
         id="stop4915"
         offset="1"
         style="stop-opacity:1;stop-color:#00914c" />
    </linearGradient>
    <clipPath
       id="clipPath4927"
       clipPathUnits="userSpaceOnUse">
      <path
         id="path4925"
         d="m 763.345,1284.106 c 0,0 37.822,-10.732 49.066,-54.179 v 0 c 0,0 17.889,13.799 38.334,10.222 v 0 c 0,0 -51.624,-16.865 -68.49,-73.088 v 0 c 0,0 43.954,68.491 133.401,58.523 v 0 c 0,0 -16.866,15.587 -29.133,10.988 v 0 c 0,0 -27.708,48.263 -106.105,48.264 v 0 c -5.445,0 -11.132,-0.233 -17.073,-0.73" />
    </clipPath>
    <linearGradient
       id="linearGradient4939"
       spreadMethod="pad"
       gradientTransform="matrix(152.31055,0,0,-152.31055,763.34473,1225.9482)"
       gradientUnits="userSpaceOnUse"
       y2="0"
       x2="1"
       y1="0"
       x1="0">
      <stop
         id="stop4933"
         offset="0"
         style="stop-opacity:1;stop-color:#2bc4f3" />
      <stop
         id="stop4935"
         offset="0.5"
         style="stop-opacity:1;stop-color:#00aeee" />
      <stop
         id="stop4937"
         offset="1"
         style="stop-opacity:1;stop-color:#0095da" />
    </linearGradient>
  </defs>
  <metadata
     id="metadata5">
    <rdf:RDF>
      <cc:Work
         rdf:about="">
        <dc:format>image/svg+xml</dc:format>
        <dc:type
           rdf:resource="http://purl.org/dc/dcmitype/StillImage" />
        <dc:title></dc:title>
      </cc:Work>
    </rdf:RDF>
  </metadata>
  <g
     style="display:inline"
     transform="translate(0,-161.53332)"
     id="layer1">
    <g
       transform="matrix(2.5211574,0,0,2.5211576,-100.35181,-337.85859)"
       id="g3636">
      <g
         transform="matrix(0.35277777,0,0,-0.35277777,-229.48728,657.98126)"
         id="g4899">
        <g
           id="g4901"
           clip-path="url(#clipPath4905)">
          <g
             id="g4907">
            <g
               id="g4909">
              <path
                 d="m 856.534,1264.95 29.989,-28.378 c 9.456,32.456 -21.977,51.368 -21.977,51.368 v 0 c 3.066,-13.544 -8.012,-22.99 -8.012,-22.99"
                 style="fill:url(#linearGradient4917);stroke:none"
                 id="path4919" />
            </g>
          </g>
        </g>
      </g>
      <g
         transform="matrix(0.35277777,0,0,-0.35277777,-229.48728,657.98126)"
         id="g4921">
        <g
           id="g4923"
           clip-path="url(#clipPath4927)">
          <g
             id="g4929">
            <g
               id="g4931">
              <path
                 d="m 763.345,1284.106 c 0,0 37.822,-10.732 49.066,-54.179 v 0 c 0,0 17.889,13.799 38.334,10.222 v 0 c 0,0 -51.624,-16.865 -68.49,-73.088 v 0 c 0,0 43.954,68.491 133.401,58.523 v 0 c 0,0 -16.866,15.587 -29.133,10.988 v 0 c 0,0 -27.708,48.263 -106.105,48.264 v 0 c -5.445,0 -11.132,-0.233 -17.073,-0.73"
                 style="fill:url(#linearGradient4939);stroke:none"
                 id="path4941" />
            </g>
          </g>
        </g>
      </g>
    </g>
  </g>
</svg>
